<svg xmlns="http://www.w3.org/2000/svg" viewBox="0 0 128 72" fill="none">
  <g stroke="currentColor" stroke-width="4" stroke-linecap="round" stroke-linejoin="round">
    <path d="M8 46h88l14 8H24c-7 0-12-2-16-8Z" fill="currentColor" fill-opacity=".15"/>
    <path d="M8 46h88l14 8H24c-7 0-12-2-16-8Z"/>
    <rect x="18" y="27" width="54" height="16" rx="2" fill="currentColor" fill-opacity=".14"/>
    <rect x="72" y="27" width="18" height="16" rx="2" fill="currentColor" fill-opacity=".22"/>
    <rect x="28" y="16" width="46" height="11" rx="2" fill="currentColor" fill-opacity=".18"/>
    <path d="M18 27h54v16H18zM72 27h18v16H72zM28 16h46v11H28z"/>
    <path d="M40 16v11M54 16v11M68 16v11M31 27v16M45 27v16M59 27v16M78 27v16"/>
  </g>
</svg>
